<svg xmlns="http://www.w3.org/2000/svg" viewBox="0 0 300 200" role="img" aria-label="plant">
  <rect width="300" height="200" rx="24" fill="none" />
  <g stroke="#255e9f" stroke-width="5.5" stroke-linecap="round" stroke-linejoin="round" fill="none">
    <path d="M150 120v-35" />
    <path d="M150 85c-20-10-35-5-45 10" />
    <path d="M150 95c18-18 40-18 55-5" />
    <path d="M150 110c-10-22-25-30-40-26" />
    <rect x="110" y="120" width="80" height="40" rx="12" />
  </g>
  <g opacity="0.35" transform="translate(2 -1)" stroke="#255e9f" stroke-width="5.5" stroke-linecap="round" stroke-linejoin="round" fill="none">
    <path d="M150 120v-35" />
    <path d="M150 85c-20-10-35-5-45 10" />
    <path d="M150 95c18-18 40-18 55-5" />
    <path d="M150 110c-10-22-25-30-40-26" />
    <rect x="110" y="120" width="80" height="40" rx="12" />
  </g>
  <circle cx="205" cy="70" r="10" fill="#c75442" />
</svg>
